<?xml version="1.0" encoding="UTF-8"?>
<svg version="1.1" xmlns="http://www.w3.org/2000/svg" width="260" height="254">
<path d="M0 0 C37.39507849 -0.69587177 68.63840696 8.80174 96 35 C96.75796875 35.69480469 97.5159375 36.38960937 98.296875 37.10546875 C118.97989553 56.6830175 131.4203258 86.76077705 132.3359375 115.03125 C132.78203585 151.72101125 123.35553529 182.86012968 97.61010742 209.79272461 C75.88681525 231.90772567 46.28793547 245.45571436 15.1875 246.4375 C1.62944273 246.09353237 -11.36207916 240.19225642 -20.8125 230.4375 C-29.67510006 219.82168141 -35.93800814 205.47228767 -35.2734375 191.4140625 C-32.88798604 170.35393391 -21.91876207 152.94091136 -7.5546875 137.73046875 C-5.52797659 135.56430526 -3.58986132 133.36765219 -1.66015625 131.1171875 C1.81645202 127.12686166 5.54352034 123.51589682 9.4375 119.9375 C10.12416748 119.29901123 10.81083496 118.66052246 11.51831055 118.00268555 C14.37893745 115.3432041 17.24807571 112.69304491 20.12011719 110.04589844 C47.10071809 85.97429284 47.10071809 85.97429284 59.3125 53.125 C59.04343207 45.03713448 56.09482978 38.47938356 51.40234375 32.0078125 C50 30 50 30 49.06640625 27.8671875 C47.71539633 25.50168295 46.4521762 25.10051111 44 24 C42.79721749 22.99721828 41.61129319 21.97406476 40.4375 20.9375 C29.9036937 12.62499058 16.49130581 7.74909655 3.7109375 4.0703125 C2.81632812 3.71710937 1.92171875 3.36390625 1 3 C0.505 1.515 0.505 1.515 0 0 Z " fill="#01346D" transform="translate(122,3)"/>
<path d="M0 0 C6.77644706 0.47898927 13.06072179 1.53336044 19.5625 3.5 C20.41803467 3.75845703 21.27356934 4.01691406 22.1550293 4.28320312 C28.15201646 6.19408121 33.74655415 8.56591683 39.3125 11.5 C39.98676025 11.85513672 40.66102051 12.21027344 41.35571289 12.57617188 C47.58226647 16.03371838 53.30594604 20.29441766 57.25 26.3125 C57.93835938 27.32763672 57.93835938 27.32763672 58.640625 28.36328125 C62.17918263 35.22686285 63.53817244 41.68614205 63.4375 49.375 C63.42847656 50.20644531 63.41945313 51.03789063 63.41015625 51.89453125 C62.84346203 72.07514212 47.3645513 86.08196457 33.55444336 99.20043945 C28.06797889 104.36905582 22.52528198 109.45185214 16.83764648 114.39868164 C-14.09596092 140.46742942 -14.09596092 140.46742942 -29.37109375 176.4375 C-29.73333323 195.87058287 -21.27061883 210.2022236 -8 224 C-7.30519531 224.73476562 -6.61039063 225.46953125 -5.89453125 226.2265625 C-2.77462059 229.4490621 0.3013476 232.32753459 4 234.875 C4.99 235.57625 5.98 236.2775 7 237 C7 237.66 7 238.32 7 239 C1.21005197 238.56370878 -2.49691544 236.14672781 -7.1875 233 C-7.93563965 232.5059668 -8.6837793 232.01193359 -9.45458984 231.50292969 C-15.63573301 227.36442479 -21.43940797 222.95121208 -27 218 C-27.6290625 217.4534375 -28.258125 216.906875 -28.90625 216.34375 C-39.03883468 206.94808057 -48.24428667 192.64193031 -49.23828125 178.64453125 C-49.38858099 170.88431814 -49.13239556 164.76925749 -45 158 C-44.46826172 157.00226563 -44.46826172 157.00226563 -43.92578125 155.984375 C-36.72150611 143.7121082 -24.13008324 133.55545191 -13 125 C-12.0203125 124.23816406 -11.040625 123.47632813 -10.03125 122.69140625 C-5.30101958 119.03250277 -0.54203166 115.41198067 4.21875 111.79296875 C33.69998827 91.08862963 33.69998827 91.08862963 49 60 C50.35763874 47.5222076 48.71372138 38.61829517 41.01953125 28.359375 C29.96504504 15.23091415 15.68287636 8.10742152 0 2 C0 1.34 0 0.68 0 0 Z " fill="#C15007" transform="translate(101,7)"/>
<path d="M0 0 C15.27415683 -0.78277545 32.82044277 7.91601856 44.265625 17.671875 C52.09631252 24.84353797 57.91810816 33.51277455 58.39550781 44.34277344 C58.61874823 55.47883596 55.86412642 63.08783451 48.15014648 71.44042969 C41.1675968 78.5873158 33.1203078 84.44165908 25.12841797 90.39306641 C21.7793636 92.92156788 18.51390533 95.55054994 15.25 98.1875 C11.21915714 101.43920141 7.16976106 104.65404912 3.04272461 107.78295898 C-4.57088 113.55540294 -11.86347502 119.64895618 -19 126 C-20.16015625 127.03060547 -20.16015625 127.03060547 -21.34375 128.08203125 C-31.75834316 137.89737203 -39.9141217 150.25640726 -40.5625 164.8125 C-39.89091976 184.63494891 -26.88424882 199.39274553 -13.390625 212.54296875 C-8.75250087 216.84259624 -4.02544026 220.52434337 1.3828125 223.80859375 C2.18332031 224.39833984 2.18332031 224.39833984 3 225 C3 225.66 3 226.32 3 227 C-1.89804186 226.38654662 -5.77161071 224.2950489 -10.0625 222 C-10.81619873 221.59700684 -11.56989746 221.19401367 -12.34643555 220.77880859 C-31.82819534 210.11846925 -50.81471504 193.55585488 -58 172 C-59.07805565 156.43004873 -55.66542714 146.54180741 -45.44482422 134.6171875 C-32.22463996 119.81987413 -15.06368155 108.62683398 1.25 97.5546875 C10.79564062 91.07375204 20.07192947 84.31494867 29 77 C29.85207031 76.35289063 30.70414062 75.70578125 31.58203125 75.0390625 C38.91083255 68.85871633 42.670593 59.89239923 43.8125 50.5625 C44.43503008 40.73735133 41.53120623 34.02830419 36 26 C35.59265625 25.39414062 35.1853125 24.78828125 34.765625 24.1640625 C26.28886995 13.01869937 12.6544234 6.96316346 0 2 C0 1.34 0 0.68 0 0 Z " fill="#BE4F07" transform="translate(83,13)"/>
<path d="M0 0 C13.58201611 0.242536 27.25160963 7.87353958 37 17 C44.07599328 25.12721912 47.55541413 32.05866072 47.30078125 42.9140625 C45.95784823 56.69220651 35.05344228 65.63931595 25 74 C21.73963566 76.42582061 18.38443947 78.68908963 15 80.9375 C14.06373779 81.56865723 13.12747559 82.19981445 12.1628418 82.85009766 C9.11255256 84.90607151 6.05667298 86.95353114 3 89 C-0.31334459 91.2218899 -3.62527421 93.44572037 -6.93164062 95.67797852 C-9.03752949 97.09901135 -11.14669755 98.51520186 -13.25976562 99.92553711 C-28.63228828 110.29643113 -40.82439668 120.53810763 -46 139 C-47.01011792 144.59449923 -47.28977953 149.44402664 -46 155 C-46.99 155 -47.98 155 -49 155 C-53.43072848 145.4858018 -54.74081748 136.01348583 -52.1875 125.7265625 C-49.35507426 118.07507907 -44.79584311 112.63325346 -39 107 C-37.98292969 105.96939453 -37.98292969 105.96939453 -36.9453125 104.91796875 C-29.08359643 97.39742149 -19.37275559 92.41890291 -9.92578125 87.18359375 C17.51167987 72.43296868 17.51167987 72.43296868 33.5859375 46.9921875 C35.4617633 37.96698788 33.14343305 29.18563016 28.5 21.375 C21.60513718 11.7762694 10.41982568 6.86765579 0 2 C0 1.34 0 0.68 0 0 Z " fill="#AF4906" transform="translate(67,21)"/>
<path d="M0 0 C4.80373898 2.65718633 8.05016447 6.08799341 9.8125 11.375 C10.52427137 18.23850962 10.6044097 24.079663 6.33984375 29.75 C1.65705488 34.73219992 -2.0754673 35.6320136 -8.75 35.875 C-14.02820875 35.69946324 -17.23879476 35.12120753 -21.1875 31.375 C-25.73715339 26.44620882 -27.64231737 22.22315771 -27.4375 15.42578125 C-26.70056703 9.38062798 -23.80467719 5.15269043 -19.1875 1.375 C-12.65648401 -2.19857479 -6.7821523 -3.04686917 0 0 Z " fill="#DB5B08" transform="translate(52.1875,51.625)"/>
<path d="M0 0 C7.97314118 -0.90603877 15.18944278 2.29755735 21.6328125 6.8671875 C27.23663895 11.62026802 31.57258687 16.60102369 33 24 C33.91589238 35.7864839 32.37000414 45.74476542 24.73828125 55.04296875 C24.16464844 55.68878906 23.59101562 56.33460937 23 57 C22.06220703 58.07701172 22.06220703 58.07701172 21.10546875 59.17578125 C6.14670064 75.24466202 -16.93518542 83.78798461 -36.71875 92.42578125 C-37.85248047 92.92118408 -38.98621094 93.41658691 -40.15429688 93.92700195 C-43 95 -43 95 -46 95 C-44.97228352 91.62213776 -43.80797836 90.88455842 -40.71875 89.02734375 C-39.31709505 88.32152908 -37.91046084 87.62554881 -36.5 86.9375 C-2.10279524 69.46668068 -2.10279524 69.46668068 21 40 C23.69733749 31.32522944 21.90996412 22.99206502 18 15 C13.92349934 7.95386309 7.22371249 5.19105746 0 2 C0 1.34 0 0.68 0 0 Z " fill="#AF4906" transform="translate(54,30)"/>
<path d="M0 0 C6.77646523 0.47899055 13.0606903 1.53341129 19.5625 3.5 C20.41585937 3.75773193 21.26921875 4.01546387 22.1484375 4.28100586 C28.20674756 6.21125076 33.8689066 8.61414159 39.5 11.5625 C40.19939697 11.92601562 40.89879395 12.28953125 41.61938477 12.6640625 C45.66894039 14.89940519 48.3249868 17.11713646 51 21 C47.98257734 19.56524511 45.1419526 17.89862425 42.27783203 16.18164062 C35.42574221 12.10915439 28.720253 9.14922794 21 7 C22.32 8.65 23.64 10.3 25 12 C21.95175599 12 20.82854787 11.61283013 18.1640625 10.3203125 C17.42929688 9.96839844 16.69453125 9.61648437 15.9375 9.25390625 C15.174375 8.88136719 14.41125 8.50882813 13.625 8.125 C6.90163565 4.86137612 6.90163565 4.86137612 0 2 C0 1.34 0 0.68 0 0 Z " fill="#652A03" transform="translate(101,7)"/>
<path d="M0 0 C14.51184738 -0.74370834 31.76757664 7.23153491 42.75830078 16.47949219 C46.03103735 19.48163696 49.06094651 22.66865759 52 26 C51.67 26.66 51.34 27.32 51 28 C50.39414063 27.34773438 49.78828125 26.69546875 49.1640625 26.0234375 C40.62892267 17.12063011 31.46981428 11.50030907 20 7 C19.34 7 18.68 7 18 7 C18.33 7.99 18.66 8.98 19 10 C14.86177782 8.37003104 10.77231222 6.63344645 6.6875 4.875 C5.71973633 4.45927734 5.71973633 4.45927734 4.73242188 4.03515625 C3.15470995 3.35732446 1.57732174 2.67873926 0 2 C0 1.34 0 0.68 0 0 Z " fill="#4E2002" transform="translate(83,13)"/>
<path d="M0 0 C11.86667354 -0.22082273 23.29459515 -0.20337033 35 2 C35 2.33 35 2.66 35 3 C27.08 3 19.16 3 11 3 C12.7325 3.70125 14.465 4.4025 16.25 5.125 C22.65782999 7.78730079 28.83582663 10.81954885 35 14 C35 14.66 35 15.32 35 16 C30.8292789 14.69238908 26.98836607 13.10243339 23.0625 11.1875 C16.82356915 8.23714055 10.53243648 6.13871328 3.921875 4.17578125 C2.95765625 3.78777344 1.9934375 3.39976563 1 3 C0.67 2.01 0.34 1.02 0 0 Z " fill="#001731" transform="translate(122,3)"/>
<path d="M0 0 C13.56995971 0.24232071 27.2312536 7.85658858 37 17 C38.3203125 19.26953125 38.3203125 19.26953125 39 21 C38.52691406 20.63648437 38.05382812 20.27296875 37.56640625 19.8984375 C33.85262477 17.07509486 30.09922417 14.32386747 26.25 11.6875 C25.53328125 11.19636719 24.8165625 10.70523437 24.078125 10.19921875 C22.03121066 9.01801066 20.30934556 8.44210444 18 8 C18.33 8.99 18.66 9.98 19 11 C14.75707468 9.39369175 10.72974893 7.4231838 6.6875 5.375 C5.71973633 4.88773438 5.71973633 4.88773438 4.73242188 4.390625 C3.15402459 3.59558044 1.57688306 2.79804366 0 2 C0 1.34 0 0.68 0 0 Z " fill="#5A2503" transform="translate(67,21)"/>
<path d="M0 0 C0.66 0.33 1.32 0.66 2 1 C1.37432129 1.62044189 0.74864258 2.24088379 0.10400391 2.88012695 C-2.22012119 5.18719147 -4.54196405 7.49650473 -6.86230469 9.80737305 C-7.86628378 10.80632901 -8.87115932 11.80438487 -9.87695312 12.80151367 C-11.32399338 14.23639993 -12.76775991 15.67451134 -14.2109375 17.11328125 C-15.08024902 17.97735596 -15.94956055 18.84143066 -16.84521484 19.73168945 C-19.12463379 22.00181792 -19.12463379 22.00181792 -21 25 C-21.66 25 -22.32 25 -23 25 C-23.185625 26.0828125 -23.185625 26.0828125 -23.375 27.1875 C-24 30 -24 30 -25.03125 32.09375 C-26.39763347 36.19290041 -26.2129817 40.02508389 -26.125 44.3125 C-26.11597656 45.14845703 -26.10695313 45.98441406 -26.09765625 46.84570312 C-26.07420989 48.89725969 -26.03834266 50.94866777 -26 53 C-29.54264156 47.68603766 -28.60871396 40.23659365 -28 34 C-25.5387615 22.82863004 -17.48876105 15.05842036 -9 8 C-7.32846282 6.5263395 -5.66177609 5.04715889 -4 3.5625 C-3.236875 2.88316406 -2.47375 2.20382813 -1.6875 1.50390625 C-1.130625 1.00761719 -0.57375 0.51132813 0 0 Z " fill="#B44A06" transform="translate(53,135)"/>
<path d="M0 0 C2.74520724 2.72468232 5.45834052 5.47160133 8.12890625 8.26953125 C14.58747657 14.96636981 20.73702896 20.66367247 28.76953125 25.44921875 C31 27 31 27 32 30 C27.13127946 29.40440894 23.40671159 27.27522585 19.1875 24.9375 C18.49462891 24.56044922 17.80175781 24.18339844 17.08789062 23.79492188 C15.38871015 22.86916148 13.69390575 21.93537688 12 21 C12.66 20.67 13.32 20.34 14 20 C14.99 20.33 15.98 20.66 17 21 C13.5398324 16.95086771 10.05009433 12.98527396 6.25 9.25 C3.93553277 6.96673907 1.7423489 4.76726002 0 2 C0 1.34 0 0.68 0 0 Z " fill="#2E1201" transform="translate(54,210)"/>
<path d="M0 0 C0.66 0.33 1.32 0.66 2 1 C0.35 1.66 -1.3 2.32 -3 3 C-3 3.66 -3 4.32 -3 5 C0.465 4.505 0.465 4.505 4 4 C0.37532749 7.62467251 -4.77833977 9.11494538 -9.4375 11.125 C-11.03174805 11.82689453 -11.03174805 11.82689453 -12.65820312 12.54296875 C-13.67720703 12.98511719 -14.69621094 13.42726563 -15.74609375 13.8828125 C-16.68122803 14.28902832 -17.6163623 14.69524414 -18.57983398 15.11376953 C-21 16 -21 16 -24 16 C-22.6355548 12.68994897 -21.44929093 11.34965532 -18.26171875 9.74609375 C-17.15473633 9.17665039 -17.15473633 9.17665039 -16.02539062 8.59570312 C-14.86813477 8.02239258 -14.86813477 8.02239258 -13.6875 7.4375 C-12.16998735 6.66651605 -10.65304559 5.89440726 -9.13671875 5.12109375 C-8.06236572 4.58137939 -8.06236572 4.58137939 -6.96630859 4.03076172 C-5.29372739 3.1539753 -3.67946525 2.16737367 -2.08203125 1.16015625 C-1.39496094 0.77730469 -0.70789063 0.39445312 0 0 Z " fill="#401A02" transform="translate(32,109)"/>
<path d="M0 0 C0.66 0.33 1.32 0.66 2 1 C-9.88 12.88 -21.76 24.76 -34 37 C-34 33.35252619 -33.35994953 32.94668578 -30.921875 30.375 C-29.9306665 29.32276245 -29.9306665 29.32276245 -28.91943359 28.24926758 C-28.20352051 27.50700928 -27.48760742 26.76475098 -26.75 26 C-26.02506348 25.23905029 -25.30012695 24.47810059 -24.55322266 23.6940918 C-19.39181036 18.32297226 -14.06023193 13.21238031 -8.5078125 8.25 C-5.55580463 5.60146958 -2.76482852 2.84162931 0 0 Z " fill="#012D5F" transform="translate(146,111)"/>
<path d="M0 0 C3.65601748 3.46597697 5.86463234 6.70504598 6.16796875 11.84765625 C6.17763672 13.43900391 6.17763672 13.43900391 6.1875 15.0625 C6.20167969 16.12597656 6.21585938 17.18945312 6.23046875 18.28515625 C6 21 6 21 4 23 C4.05800781 22.154375 4.11601563 21.30875 4.17578125 20.4375 C4.43614567 13.89119467 4.53298891 8.8746854 0.46875 3.5234375 C-3.38010776 -0.46872879 -7.07463775 -1.19540088 -12.4375 -1.4375 C-17.75572582 -1.30708029 -20.68465538 -0.02992282 -25 3 C-25.99 3.495 -25.99 3.495 -27 4 C-25.54163185 0.15521125 -23.63541701 -1.1822915 -20 -3 C-12.89822385 -5.69377716 -6.03868094 -4.21933476 0 0 Z " fill="#3E1A02" transform="translate(56,54)"/>
<path d="M0 0 C8.02517475 -0.91195168 15.43841934 2.28617586 21.7734375 7.11328125 C23.91840038 9.01803535 25.9898021 10.9542683 28 13 C27.67 13.66 27.34 14.32 27 15 C26.5153125 14.54109375 26.030625 14.0821875 25.53125 13.609375 C20.94368144 9.40998532 16.67866491 6.53511826 11 4 C11.33 4.99 11.66 5.98 12 7 C7.96479403 5.41037341 3.98188718 3.71767682 0 2 C0 1.34 0 0.68 0 0 Z " fill="#431B02" transform="translate(54,30)"/>
<path d="M0 0 C4.04417029 3.35580088 7.83048844 6.79857562 11.5 10.5625 C14.21317236 13.32686429 16.86338273 15.75305224 20.0625 17.9375 C21.031875 18.618125 22.00125 19.29875 23 20 C23 20.66 23 21.32 23 22 C17.50847458 21.38983051 17.50847458 21.38983051 15.125 19.5625 C14 18 14 18 14 16 C12.68125785 14.43570427 12.68125785 14.43570427 10.9375 12.8125 C10.30585937 12.19632813 9.67421875 11.58015625 9.0234375 10.9453125 C8.02183594 9.98238281 8.02183594 9.98238281 7 9 C5.68299066 7.73384044 4.37024866 6.46322217 3.0625 5.1875 C2.47597656 4.62417969 1.88945313 4.06085938 1.28515625 3.48046875 C0 2 0 2 0 0 Z " fill="#1B0B00" transform="translate(85,224)"/>
<path d="M0 0 C0.625 1.8125 0.625 1.8125 1 4 C0.01 5.485 0.01 5.485 -1 7 C-1.27599951 9.61601555 -1.27599951 9.61601555 -1.1953125 12.54296875 C-1.18886719 13.61611328 -1.18242188 14.68925781 -1.17578125 15.79492188 C-1.15064453 17.47424805 -1.15064453 17.47424805 -1.125 19.1875 C-1.11597656 20.31865234 -1.10695312 21.44980469 -1.09765625 22.61523438 C-1.07406862 25.41036828 -1.041153 28.20507845 -1 31 C-5.33853979 24.49219032 -4.59840301 16.55386657 -4 9 C-3.02399163 5.7437974 -1.76191794 2.90244518 0 0 Z " fill="#612703" transform="translate(56,165)"/>
<path d="M0 0 C5.91492272 0.45224761 11.35199888 1.1582605 17 3 C17 3.33 17 3.66 17 4 C15.35 4 13.7 4 12 4 C12 4.66 12 5.32 12 6 C10.37433394 5.52309796 8.74948689 5.04340334 7.125 4.5625 C6.22007813 4.29566406 5.31515625 4.02882813 4.3828125 3.75390625 C2 3 2 3 0 2 C0 1.34 0 0.68 0 0 Z " fill="#5E2703" transform="translate(101,7)"/>
<path d="M0 0 C0.33 1.32 0.66 2.64 1 4 C0.01 4.33 -0.98 4.66 -2 5 C-2.12375 5.721875 -2.2475 6.44375 -2.375 7.1875 C-3 10 -3 10 -4.03125 12.09375 C-5.39763347 16.19290041 -5.2129817 20.02508389 -5.125 24.3125 C-5.11597656 25.14845703 -5.10695313 25.98441406 -5.09765625 26.84570312 C-5.07420989 28.89725969 -5.03834266 30.94866777 -5 33 C-7.41243065 29.38135403 -7.38418995 26.63005147 -7.375 22.4375 C-7.37411377 21.72239258 -7.37322754 21.00728516 -7.37231445 20.27050781 C-7.19629912 12.34713759 -4.89679768 6.22973688 0 0 Z " fill="#4F2002" transform="translate(32,155)"/>
<path d="M0 0 C0.57492188 0.36351563 1.14984375 0.72703125 1.7421875 1.1015625 C-2.30779972 4.50355176 -6.89407899 7.1015625 -12.2578125 7.1015625 C-10.88445559 3.74604099 -9.61846824 2.35049538 -6.3828125 0.7265625 C-5.70476563 0.36820312 -5.02671875 0.00984375 -4.328125 -0.359375 C-2.2578125 -0.8984375 -2.2578125 -0.8984375 0 0 Z " fill="#3A1702" transform="translate(20.2578125,117.8984375)"/>
<path d="M0 0 C1.12285751 4.49143004 0.7106909 7.71605959 0.15625 12.24609375 C-0.00219549 15.03869551 0.33237098 17.29512065 1 20 C0.01 20 -0.98 20 -2 20 C-5.125 13.375 -5.125 13.375 -4 10 C-3.67 10.66 -3.34 11.32 -3 12 C-2.01 8.04 -1.02 4.08 0 0 Z " fill="#3E1902" transform="translate(20,156)"/>
<path d="M0 0 C0.66 0.33 1.32 0.66 2 1 C2 4 2 4 0.9375 5.625 C-1.87456882 7.62066174 -4.62268141 7.68138504 -8 8 C-8 7.34 -8 6.68 -8 6 C-7.4225 5.7525 -6.845 5.505 -6.25 5.25 C-3.6997003 3.83316683 -1.98214299 2.12372463 0 0 Z " fill="#A74506" transform="translate(37,106)"/>
<path d="M0 0 C6.93 0 13.86 0 21 0 C21 0.33 21 0.66 21 1 C13.08 1.495 13.08 1.495 5 2 C5.99 2.66 6.98 3.32 8 4 C5.69 3.67 3.38 3.34 1 3 C0.67 2.01 0.34 1.02 0 0 Z " fill="#000B17" transform="translate(122,3)"/>
<path d="M0 0 C1.14926266 0.95421808 2.29430541 1.91352045 3.4375 2.875 C4.07558594 3.40867188 4.71367188 3.94234375 5.37109375 4.4921875 C7 6 7 6 8 8 C4.04179141 7.43454163 1.3340947 6.19097652 -2 4 C-1.34 2.68 -0.68 1.36 0 0 Z " fill="#8E3B05" transform="translate(93,234)"/>
<path d="M0 0 C2.6875 -0.3125 2.6875 -0.3125 6 0 C8.875 2.5 8.875 2.5 11 5 C6.62886504 4.49172849 3.61004338 3.54826592 0 1 C0 0.67 0 0.34 0 0 Z " fill="#883804" transform="translate(66,230)"/>
<path d="M0 0 C2.64 0 5.28 0 8 0 C8 0.66 8 1.32 8 2 C7.01 2.495 7.01 2.495 6 3 C6.33 3.99 6.66 4.98 7 6 C4.525 5.01 4.525 5.01 2 4 C2 3.01 2 2.02 2 1 C1.34 0.67 0.68 0.34 0 0 Z " fill="#823604" transform="translate(95,17)"/>
<path d="M0 0 C-0.375 1.9375 -0.375 1.9375 -1 4 C-3.70879335 5.35439668 -6.00933268 5.06501451 -9 5 C-6.45523312 2.20075644 -3.92372883 0 0 0 Z " fill="#933D05" transform="translate(28,114)"/>
<path d="M0 0 C1.73169596 3.1622274 2.7128976 6.26742722 3.625 9.75 C3.88539062 10.73484375 4.14578125 11.7196875 4.4140625 12.734375 C4.60742188 13.48203125 4.80078125 14.2296875 5 15 C1.84416467 13.42208234 1.28897103 11.22242758 0 8 C-0.23974103 5.27478055 -0.14196504 2.74465742 0 0 Z " fill="#431C02" transform="translate(71,195)"/>
<path d="M0 0 C6.625 -0.25 6.625 -0.25 10 2 C6.88228073 3.60339848 5.60988311 4.18974141 2.1875 3.125 C1.465625 2.75375 0.74375 2.3825 0 2 C0 1.34 0 0.68 0 0 Z " fill="#311401" transform="translate(54,30)"/>
<path d="M0 0 C6.625 -0.25 6.625 -0.25 10 2 C6.88228073 3.60339848 5.60988311 4.18974141 2.1875 3.125 C1.465625 2.75375 0.74375 2.3825 0 2 C0 1.34 0 0.68 0 0 Z " fill="#331501" transform="translate(83,13)"/>
<path d="M0 0 C2.35981813 0.93578995 4.69631264 1.93347808 7 3 C7 3.66 7 4.32 7 5 C1.46153846 4.38461538 1.46153846 4.38461538 -0.875 2.4375 C-1.24625 1.963125 -1.6175 1.48875 -2 1 C-1.34 0.67 -0.68 0.34 0 0 Z " fill="#431C02" transform="translate(101,241)"/>
<path d="M0 0 C0.66 0.33 1.32 0.66 2 1 C-0.64 3.64 -3.28 6.28 -6 9 C-6.33 8.34 -6.66 7.68 -7 7 C-4.78071806 4.09197539 -3.07030857 2.04687238 0 0 Z " fill="#CA5407" transform="translate(35,53)"/>
<path d="M0 0 C2.97 0.33 5.94 0.66 9 1 C7.515 2.485 7.515 2.485 6 4 C4.02 3.34 2.04 2.68 0 2 C0 1.34 0 0.68 0 0 Z " fill="#2E1201" transform="translate(67,21)"/>
<path d="M0 0 C3.3 0.33 6.6 0.66 10 1 C10 1.33 10 1.66 10 2 C2.25 3.125 2.25 3.125 0 2 C0 1.34 0 0.68 0 0 Z " fill="#301401" transform="translate(101,7)"/>
</svg>
